<?xml version="1.0" encoding="UTF-8"?><svg xmlns="http://www.w3.org/2000/svg" xmlns:xlink="http://www.w3.org/1999/xlink" height="252.4" preserveAspectRatio="xMidYMid meet" version="1.0" viewBox="1.0 -11.5 404.0 252.4" width="404.0" zoomAndPan="magnify"><g fill-rule="evenodd"><g id="change1_1"><path d="M 202.988281 1.847656 C 282.320312 15.378906 357.597656 58.898438 359.152344 138.230469 C 359.644531 163.332031 353.128906 187.1875 341.605469 208.21875 C 223.414062 211.09375 72.234375 213.714844 59.835938 209.28125 C 51.539062 193.453125 46.820312 175.578125 46.820312 155.929688 C 46.820312 76.582031 124.769531 -11.5 202.988281 1.847656" fill="#f08d32"/></g><g id="change2_1"><path d="M 203.007812 39.878906 C 144.765625 49.8125 89.5 81.761719 88.355469 140.007812 C 87.828125 167.078125 98.402344 192.179688 115.417969 211.632812 C 161.980469 211.824219 230.824219 210.699219 296.398438 209.265625 C 309.585938 194.023438 317.660156 175.027344 317.660156 153 C 317.660156 94.746094 260.433594 30.078125 203.007812 39.878906" fill="#febd3d"/></g><g id="change3_1"><path d="M 202.992188 67.273438 C 242.375 73.992188 279.742188 95.59375 280.511719 134.976562 C 281.335938 176.789062 242.96875 211.652344 202.992188 209.910156 C 163.644531 208.199219 125.472656 183.148438 125.472656 143.761719 C 125.472656 104.371094 164.164062 60.648438 202.992188 67.273438" fill="#f8f067"/></g><g id="change4_1"><path d="M 203.003906 103.699219 C 187.644531 106.320312 173.070312 114.746094 172.769531 130.105469 C 172.449219 146.414062 187.410156 160.011719 203.003906 159.332031 C 218.351562 158.664062 233.238281 148.894531 233.238281 133.53125 C 233.238281 118.171875 218.144531 101.117188 203.003906 103.699219" fill="#fefcfd"/></g><g id="change5_12"><path d="M 144.398438 48.382812 C 135.875 49.636719 129.335938 56.980469 129.335938 65.851562 C 129.335938 75.605469 137.242188 83.511719 146.996094 83.511719 C 152.277344 83.511719 157.019531 81.191406 160.253906 77.515625 C 159.40625 77.640625 158.539062 77.703125 157.65625 77.703125 C 147.902344 77.703125 139.996094 69.800781 139.996094 60.046875 C 139.996094 55.574219 141.65625 51.492188 144.398438 48.382812" fill="#fff"/></g><g id="change5_17"><path d="M 82.675781 98.964844 C 83.824219 98.964844 84.757812 99.898438 84.757812 101.046875 C 84.757812 102.199219 83.824219 103.132812 82.675781 103.132812 C 81.523438 103.132812 80.59375 102.199219 80.59375 101.046875 C 80.59375 99.898438 81.523438 98.964844 82.675781 98.964844" fill="#fff"/></g><g id="change5_16"><path d="M 253.007812 74.480469 C 255.078125 74.480469 256.757812 76.160156 256.757812 78.230469 C 256.757812 80.300781 255.078125 81.980469 253.007812 81.980469 C 250.9375 81.980469 249.257812 80.300781 249.257812 78.230469 C 249.257812 76.160156 250.9375 74.480469 253.007812 74.480469" fill="#fff"/></g><g id="change5_13"><path d="M 107.21875 70.402344 C 109.289062 70.402344 110.96875 72.082031 110.96875 74.152344 C 110.96875 76.226562 109.289062 77.902344 107.21875 77.902344 C 105.144531 77.902344 103.46875 76.226562 103.46875 74.152344 C 103.46875 72.082031 105.144531 70.402344 107.21875 70.402344" fill="#fff"/></g><g id="change5_3"><path d="M 180.148438 28.976562 C 181.300781 28.976562 182.234375 29.910156 182.234375 31.058594 C 182.234375 32.210938 181.300781 33.144531 180.148438 33.144531 C 179 33.144531 178.066406 32.210938 178.066406 31.058594 C 178.066406 29.910156 179 28.976562 180.148438 28.976562" fill="#fff"/></g><g id="change5_2"><path d="M 307.761719 71.296875 C 309.832031 71.296875 311.511719 72.976562 311.511719 75.046875 C 311.511719 77.117188 309.832031 78.796875 307.761719 78.796875 C 305.691406 78.796875 304.011719 77.117188 304.011719 75.046875 C 304.011719 72.976562 305.691406 71.296875 307.761719 71.296875" fill="#fff"/></g><g id="change5_14"><path d="M 289.941406 76.265625 C 292.011719 76.265625 293.691406 77.945312 293.691406 80.015625 C 293.691406 82.089844 292.011719 83.765625 289.941406 83.765625 C 287.867188 83.765625 286.191406 82.089844 286.191406 80.015625 C 286.191406 77.945312 287.867188 76.265625 289.941406 76.265625" fill="#fff"/></g><g id="change5_1"><path d="M 255.886719 55.71875 C 257.039062 55.71875 257.972656 56.652344 257.972656 57.800781 C 257.972656 58.953125 257.039062 59.886719 255.886719 59.886719 C 254.738281 59.886719 253.804688 58.953125 253.804688 57.800781 C 253.804688 56.652344 254.738281 55.71875 255.886719 55.71875" fill="#fff"/></g><g id="change5_4"><path d="M 272.378906 33.164062 C 273.527344 33.164062 274.460938 34.097656 274.460938 35.25 C 274.460938 36.398438 273.527344 37.332031 272.378906 37.332031 C 271.226562 37.332031 270.292969 36.398438 270.292969 35.25 C 270.292969 34.097656 271.226562 33.164062 272.378906 33.164062" fill="#fff"/></g><g id="change5_10"><path d="M 208.039062 18.574219 C 209.1875 18.574219 210.121094 19.507812 210.121094 20.65625 C 210.121094 21.808594 209.1875 22.742188 208.039062 22.742188 C 206.886719 22.742188 205.953125 21.808594 205.953125 20.65625 C 205.953125 19.507812 206.886719 18.574219 208.039062 18.574219" fill="#fff"/></g><g id="change5_9"><path d="M 223.253906 68.671875 C 223.253906 64.84375 226.355469 61.742188 230.183594 61.742188 C 226.355469 61.742188 223.253906 58.640625 223.253906 54.8125 C 223.253906 58.640625 220.152344 61.742188 216.324219 61.742188 C 220.152344 61.742188 223.253906 64.84375 223.253906 68.671875" fill="#fff"/></g><g id="change5_7"><path d="M 281 66.054688 C 281 62.230469 284.101562 59.128906 287.929688 59.128906 C 284.101562 59.128906 281 56.027344 281 52.199219 C 281 56.027344 277.898438 59.128906 274.070312 59.128906 C 277.898438 59.128906 281 62.230469 281 66.054688" fill="#fff"/></g><g id="change5_15"><path d="M 141.046875 38.199219 C 141.046875 34.371094 144.148438 31.269531 147.972656 31.269531 C 144.148438 31.269531 141.046875 28.167969 141.046875 24.34375 C 141.046875 28.167969 137.941406 31.269531 134.117188 31.269531 C 137.941406 31.269531 141.046875 34.371094 141.046875 38.199219" fill="#fff"/></g><g id="change5_11"><path d="M 239.171875 36.832031 C 239.171875 33.003906 242.273438 29.902344 246.101562 29.902344 C 242.273438 29.902344 239.171875 26.800781 239.171875 22.976562 C 239.171875 26.800781 236.070312 29.902344 232.246094 29.902344 C 236.070312 29.902344 239.171875 33.003906 239.171875 36.832031" fill="#fff"/></g><g id="change5_8"><path d="M 187.128906 64.183594 C 187.128906 61.824219 189.039062 59.914062 191.398438 59.914062 C 189.042969 59.914062 187.128906 58 187.128906 55.644531 C 187.128906 58 185.21875 59.914062 182.859375 59.914062 C 185.21875 59.914062 187.128906 61.824219 187.128906 64.183594" fill="#fff"/></g><g id="change5_6"><path d="M 169.605469 62.699219 C 169.605469 58.875 172.707031 55.773438 176.535156 55.773438 C 172.707031 55.773438 169.605469 52.671875 169.605469 48.84375 C 169.605469 52.671875 166.503906 55.773438 162.679688 55.773438 C 166.503906 55.773438 169.605469 58.875 169.605469 62.699219" fill="#fff"/></g><g id="change5_5"><path d="M 119.023438 43.515625 C 120.175781 43.515625 121.105469 44.445312 121.105469 45.597656 C 121.105469 46.746094 120.175781 47.679688 119.023438 47.679688 C 117.871094 47.679688 116.941406 46.746094 116.941406 45.597656 C 116.941406 44.445312 117.871094 43.515625 119.023438 43.515625" fill="#fff"/></g><g id="change6_2"><path d="M 286.175781 182.640625 C 286.175781 182.640625 261.421875 195.234375 204.40625 195.234375 C 147.386719 195.234375 120.203125 183.964844 120.203125 183.964844 C 120.203125 183.964844 117.109375 208.441406 128.601562 208.441406 C 140.09375 208.441406 274.683594 208.128906 274.683594 208.128906 C 274.683594 208.128906 286.175781 203.855469 286.175781 182.640625" fill="#171516"/></g><g id="change3_2"><path d="M 0.996094 207.109375 C 13.730469 212.113281 52.207031 209.007812 61.550781 213.023438 C 66.832031 215.292969 11.382812 212.519531 21.996094 215.425781 C 49.152344 222.851562 88.617188 216.5 96.335938 218.773438 C 105.738281 221.546875 48.714844 220.808594 57.203125 222.90625 C 86.363281 230.109375 122.519531 222.867188 133.558594 226.503906 C 145.429688 230.417969 87.695312 227.765625 99.808594 230.03125 C 141.261719 237.78125 123.941406 234.527344 128.347656 235.449219 C 154.226562 240.855469 251.773438 240.855469 277.652344 235.449219 C 287.089844 233.476562 264.738281 237.78125 306.191406 230.03125 C 318.304688 227.765625 262.921875 231.421875 274.773438 227.566406 C 285.785156 223.984375 319.636719 230.109375 348.796875 222.90625 C 357.285156 220.808594 300.261719 221.546875 309.664062 218.773438 C 317.382812 216.5 356.847656 222.851562 384.003906 215.425781 C 394.617188 212.519531 337.929688 215.058594 344.449219 213.023438 C 351.847656 210.71875 392.269531 212.113281 405.003906 207.109375 L 0.996094 207.109375" fill="#f8f067"/></g><g id="change6_3"><path d="M 199.304688 230 L 204.664062 224.773438 L 191.4375 211.214844 L 187.425781 211.472656 L 152.140625 175.863281 C 151.871094 175.59375 151.4375 175.59375 151.171875 175.859375 C 150.902344 176.125 150.902344 176.558594 151.167969 176.828125 L 186.4375 212.421875 L 186.078125 216.441406 L 199.304688 230" fill="#171516"/></g><g id="change6_1"><path d="M 236.925781 199.445312 C 236.925781 199.445312 239.136719 189.046875 234.933594 189.710938 C 230.730469 190.371094 218.121094 192.804688 217.015625 191.257812 C 216.300781 190.253906 215.394531 184.792969 214.730469 180.648438 C 215.730469 181.175781 220.191406 180.632812 221.992188 179.957031 C 225.472656 178.65625 225.199219 178.078125 227.851562 176.757812 L 228.703125 178.769531 C 230.152344 179.640625 231.550781 179.347656 232.375 178.625 C 233.445312 177.683594 233.554688 176.023438 231.578125 175.230469 L 232.910156 173.609375 C 236.53125 172.707031 237.078125 173.128906 238.003906 171.929688 C 243.71875 169.554688 307.695312 142.957031 317.644531 141.347656 C 317.945312 141.296875 318.148438 141.015625 318.101562 140.714844 C 318.054688 140.414062 317.769531 140.210938 317.472656 140.257812 C 306.945312 141.960938 239.378906 168.996094 239.183594 169.074219 C 239.167969 169.082031 239.140625 169.117188 239.101562 169.167969 L 239.09375 169.160156 L 237.996094 169.628906 C 233.558594 170.121094 227.910156 170.136719 223.617188 170.070312 C 222.136719 170.046875 220.574219 170.164062 219.195312 169.628906 C 217.878906 169.117188 217.179688 167.335938 215.84375 167.011719 C 215.207031 165.84375 213.128906 165.492188 211.921875 165.402344 C 211.960938 165.085938 212.066406 164.886719 212.285156 164.882812 C 218.230469 164.804688 215.433594 164.011719 215.917969 160.945312 C 215.984375 160.535156 217.261719 161.035156 217.128906 160.640625 C 216.792969 159.625 215.71875 159.027344 215.011719 158.21875 C 215.011719 158.21875 214.886719 157.765625 214.859375 157.160156 C 214.800781 155.957031 219.667969 155.957031 219.667969 155.957031 C 214.703125 154.886719 210.640625 150.898438 205.953125 152.859375 C 201.746094 154.621094 198.875 161.042969 197.988281 165.027344 C 200.199219 162.8125 201.78125 162.15625 203.800781 161.25 L 201.578125 165.96875 C 200.847656 166.011719 200.339844 166.039062 200.203125 166.039062 C 199.539062 166.039062 197.550781 167.367188 197.550781 167.367188 C 197.550781 167.367188 194.894531 176.878906 194.894531 177.542969 C 194.894531 178.207031 194.453125 190.152344 194.453125 193.691406 C 194.453125 197.230469 201.753906 202.320312 204.628906 203.203125 C 207.503906 204.089844 232.941406 201.878906 232.941406 201.878906 Z M 222.324219 175.203125 C 225.386719 173.9375 231.019531 172.09375 227.761719 172.691406 L 222.546875 173.652344 L 219.226562 174.09375 C 218.339844 173.949219 216.882812 172.097656 216.792969 172.988281 C 216.351562 177.414062 219.347656 176.433594 222.324219 175.203125" fill="#171516"/></g><g id="change7_1"><path d="M 317.378906 141.34375 C 317.382812 141.199219 317.5 141.082031 317.648438 141.082031 C 317.792969 141.085938 317.910156 141.203125 317.90625 141.347656 L 316.96875 207.113281 C 316.96875 207.261719 316.847656 207.378906 316.703125 207.375 C 316.558594 207.375 316.441406 207.253906 316.441406 207.109375 L 317.378906 141.34375"/></g></g></svg>